<svg width="68" height="68" viewBox="0 0 68 68" fill="none" xmlns="http://www.w3.org/2000/svg">
<path d="M57.1905 29.3254V32.5979H53.9137V35.8767H57.1905V39.1556H60.4693V35.8767H63.7482V32.5979H60.4693V29.3254H57.1905ZM49.753 29.3254H46.472V32.5979H43.1931V35.8767H46.472V39.1556H49.7508V35.8767H53.0297V32.5979H49.7508L49.753 29.3254ZM41.9882 40.4306C40.5711 42.9493 38.3612 44.9289 35.7024 46.0614C33.0436 47.1939 30.085 47.4157 27.287 46.6924C24.489 45.9691 22.0086 44.3412 20.2318 42.062C18.4549 39.7828 17.4813 36.9802 17.4624 34.0903C17.4435 31.2004 18.3804 28.3853 20.1273 26.0831C21.8742 23.7809 24.3331 22.1207 27.1214 21.3608C29.9097 20.601 32.8709 20.7841 35.5443 21.8818C38.2177 22.9794 40.4533 24.9299 41.9032 27.4299L53.357 20.8424C50.4554 15.823 45.9775 11.9023 40.6188 9.68934C35.2601 7.47633 29.3206 7.09487 23.7229 8.6042C18.1251 10.1135 13.1824 13.4292 9.66263 18.0361C6.14282 22.643 4.24287 28.2834 4.2579 34.081C4.27294 39.8787 6.20211 45.5091 9.74577 50.0977C13.2894 54.6863 18.2492 57.9763 23.8547 59.4566C29.4602 60.9368 35.3977 60.5246 40.7448 58.2838C46.092 56.043 50.5495 52.0992 53.425 47.0649L41.9882 40.4306Z" fill="#005F91"/>
</svg>
