<svg width="16" height="16" viewBox="0 0 16 16" fill="none" xmlns="http://www.w3.org/2000/svg">
<path d="M2.95113 13.6005L1.82812 1H14.1721L13.0476 13.5985L7.99262 15L2.95113 13.6005Z" fill="#1572B6"/>
<path d="M8 13.929L12.085 12.7965L13.046 2.03052H8V13.929Z" fill="#33A9DC"/>
<path d="M8 6.59553H10.045L10.186 5.01303H8V3.46753H11.875L11.838 3.88203L11.4585 8.14103H8V6.59553Z" fill="white"/>
<path d="M8.00962 10.6091L8.00262 10.6111L6.28162 10.1461L6.17162 8.91357H4.62012L4.83662 11.3401L8.00212 12.2191L8.00962 12.2171V10.6091Z" fill="#EBEBEB"/>
<path d="M9.91341 8.07544L9.72741 10.1449L8.00391 10.6099V12.2179L11.1719 11.3399L11.1954 11.0789L11.4639 8.07544H9.91341Z" fill="white"/>
<path d="M8.00529 3.46753V5.01303H4.27229L4.24129 4.66553L4.17079 3.88203L4.13379 3.46753H8.00529ZM7.99979 6.59553V8.14103H6.30029L6.26929 7.79353L6.19929 7.01003L6.16229 6.59553H7.99979Z" fill="#EBEBEB"/>
</svg>
