<svg width="61" height="61" viewBox="0 0 61 61" fill="none" xmlns="http://www.w3.org/2000/svg">
<path d="M9.07172 54.2687L4.30371 0.79126H56.6951L51.9218 54.2606L30.4675 60.2081L9.07172 54.2687Z" fill="#E44D26"/>
<path d="M30.5 55.6625L47.8364 50.8559L51.9153 5.16406H30.5V55.6625Z" fill="#F16529"/>
<path d="M30.5013 24.9983H21.8222L21.2227 18.2816H30.5013V11.7231H14.0547L14.212 13.4826L15.8237 31.5572H30.5013V24.9983ZM30.5013 42.032L30.4723 42.0401L23.168 40.0672L22.7014 34.8369H16.1168L17.0356 45.1349L30.4713 48.8645L30.5013 48.8564V42.032Z" fill="#EBEBEB"/>
<path d="M30.4775 24.9983V31.5572H38.5538L37.7928 40.0634L30.4775 42.0378V48.8617L43.9238 45.1349L44.0224 44.0269L45.5636 26.7596L45.7233 24.9983H43.9562H30.4775ZM30.4775 11.7231V18.2816H46.3204L46.4519 16.8081L46.7512 13.4826L46.908 11.7231H30.4775Z" fill="white"/>
</svg>
