<svg width="68" height="68" viewBox="0 0 68 68" fill="none" xmlns="http://www.w3.org/2000/svg">
<g clip-path="url(#clip0_146_10)">
<path d="M0 0H68V68H0V0Z" fill="#F7DF1E"/>
<path d="M17.8801 56.8256L23.0837 53.6763C24.0878 55.4563 25.001 56.9624 27.1916 56.9624C29.2914 56.9624 30.6155 56.1411 30.6155 52.9461V31.2185H37.0057V53.0364C37.0057 59.655 33.126 62.6677 27.4655 62.6677C22.3535 62.6677 19.3862 60.0202 17.8799 56.825M40.4766 56.1408L45.6797 53.1283C47.0495 55.3652 48.8297 57.0083 51.979 57.0083C54.627 57.0083 56.3153 55.6844 56.3153 53.8585C56.3153 51.6677 54.5808 50.8915 51.6594 49.6139L50.0622 48.9285C45.4518 46.9664 42.3936 44.5014 42.3936 39.2978C42.3936 34.5048 46.0452 30.853 51.7511 30.853C55.8135 30.853 58.7349 32.2683 60.8344 35.9655L55.8587 39.161C54.763 37.1983 53.5767 36.4224 51.7508 36.4224C49.8792 36.4224 48.6924 37.6092 48.6924 39.161C48.6924 41.078 49.8792 41.8544 52.6178 43.0412L54.2153 43.7257C59.6473 46.054 62.7054 48.4273 62.7054 53.7674C62.7054 59.5193 58.1866 62.6685 52.1158 62.6685C46.182 62.6685 42.3477 59.8386 40.4763 56.1411" fill="black"/>
</g>
<defs>
<clipPath id="clip0_146_10">
<rect width="68" height="68" fill="white"/>
</clipPath>
</defs>
</svg>
