<svg width="16" height="16" viewBox="0 0 16 16" fill="none" xmlns="http://www.w3.org/2000/svg">
<path d="M3.83745 7.24394C3.68234 7.08886 3.48474 6.98326 3.26962 6.94048C3.0545 6.89771 2.83153 6.91968 2.6289 7.00363C2.42626 7.08757 2.25307 7.22971 2.13122 7.41208C2.00937 7.59445 1.94434 7.80886 1.94434 8.02819C1.94434 8.24752 2.00937 8.46193 2.13122 8.6443C2.25307 8.82667 2.42626 8.96881 2.6289 9.05275C2.83153 9.1367 3.0545 9.15867 3.26962 9.1159C3.48474 9.07312 3.68234 8.96752 3.83745 8.81244H12.1634C12.3186 8.96752 12.5162 9.07312 12.7313 9.1159C12.9464 9.15867 13.1694 9.1367 13.372 9.05275C13.5746 8.96881 13.7478 8.82667 13.8697 8.6443C13.9915 8.46193 14.0566 8.24752 14.0566 8.02819C14.0566 7.80886 13.9915 7.59445 13.8697 7.41208C13.7478 7.22971 13.5746 7.08757 13.372 7.00363C13.1694 6.91968 12.9464 6.89771 12.7313 6.94048C12.5162 6.98326 12.3186 7.08886 12.1634 7.24394H3.83745Z" fill="#FFB13B" stroke="black" stroke-width="1.865"/>
<path d="M5.61058 4.5299C5.61058 4.31064 5.54559 4.09631 5.42382 3.91398C5.30205 3.73165 5.12896 3.5895 4.92643 3.50551C4.72391 3.42151 4.50103 3.39943 4.28596 3.44206C4.07089 3.48469 3.87328 3.59012 3.7181 3.74501C3.56293 3.89991 3.45715 4.09733 3.41413 4.31232C3.37112 4.52731 3.39279 4.75023 3.47642 4.95291C3.56005 5.15559 3.70189 5.32893 3.884 5.45103C4.06611 5.57312 4.28032 5.6385 4.49958 5.6389L10.3886 11.5259C10.3886 11.7452 10.4536 11.9595 10.5753 12.1418C10.6971 12.3241 10.8702 12.4663 11.0727 12.5503C11.2752 12.6343 11.4981 12.6564 11.7132 12.6137C11.9283 12.5711 12.1259 12.4657 12.2811 12.3108C12.4362 12.1559 12.542 11.9585 12.585 11.7435C12.628 11.5285 12.6064 11.3056 12.5227 11.1029C12.4391 10.9002 12.2973 10.7269 12.1152 10.6048C11.933 10.4827 11.7188 10.4173 11.4996 10.4169L5.61058 4.5299Z" fill="#FFB13B" stroke="black" stroke-width="1.865"/>
<path d="M8.78388 3.86504C8.93895 3.70993 9.04455 3.51233 9.08733 3.29721C9.13011 3.08209 9.10813 2.85912 9.02419 2.65648C8.94025 2.45385 8.7981 2.28066 8.61573 2.15881C8.43336 2.03696 8.21896 1.97192 7.99963 1.97192C7.78029 1.97192 7.56589 2.03696 7.38352 2.15881C7.20115 2.28066 7.05901 2.45385 6.97506 2.65648C6.89112 2.85912 6.86915 3.08209 6.91192 3.29721C6.9547 3.51233 7.0603 3.70993 7.21538 3.86504V12.191C7.0603 12.3461 6.9547 12.5437 6.91192 12.7589C6.86915 12.974 6.89112 13.197 6.97506 13.3996C7.05901 13.6022 7.20115 13.7754 7.38352 13.8973C7.56589 14.0191 7.78029 14.0842 7.99963 14.0842C8.21896 14.0842 8.43336 14.0191 8.61573 13.8973C8.7981 13.7754 8.94025 13.6022 9.02419 13.3996C9.10813 13.197 9.13011 12.974 9.08733 12.7589C9.04455 12.5437 8.93895 12.3461 8.78388 12.191V3.86504Z" fill="#FFB13B" stroke="black" stroke-width="1.865"/>
<path d="M11.4996 5.6389C11.7189 5.6385 11.9331 5.57312 12.1152 5.45103C12.2973 5.32893 12.4391 5.15559 12.5228 4.95291C12.6064 4.75023 12.6281 4.52731 12.5851 4.31232C12.5421 4.09733 12.4363 3.89991 12.2811 3.74501C12.1259 3.59012 11.9283 3.48469 11.7132 3.44206C11.4982 3.39943 11.2753 3.42151 11.0728 3.50551C10.8702 3.5895 10.6972 3.73165 10.5754 3.91398C10.4536 4.09631 10.3886 4.31064 10.3886 4.5299L4.49963 10.4169C4.28029 10.4169 4.06587 10.4819 3.8835 10.6038C3.70112 10.7257 3.55898 10.8989 3.47504 11.1015C3.39111 11.3041 3.36914 11.5271 3.41193 11.7423C3.45473 11.9574 3.56035 12.155 3.71544 12.3101C3.87054 12.4652 4.06815 12.5708 4.28327 12.6136C4.4984 12.6564 4.72138 12.6344 4.92402 12.5505C5.12666 12.4665 5.29987 12.3244 5.42173 12.142C5.54358 11.9596 5.60863 11.7452 5.60863 11.5259L11.4996 5.6389Z" fill="#FFB13B" stroke="black" stroke-width="1.865"/>
<path d="M3.83745 7.24394C3.68234 7.08886 3.48474 6.98326 3.26962 6.94048C3.0545 6.89771 2.83153 6.91968 2.6289 7.00363C2.42626 7.08757 2.25307 7.22971 2.13122 7.41208C2.00937 7.59445 1.94434 7.80886 1.94434 8.02819C1.94434 8.24752 2.00937 8.46193 2.13122 8.6443C2.25307 8.82667 2.42626 8.96881 2.6289 9.05275C2.83153 9.1367 3.0545 9.15867 3.26962 9.1159C3.48474 9.07312 3.68234 8.96752 3.83745 8.81244H12.1634C12.3186 8.96752 12.5162 9.07312 12.7313 9.1159C12.9464 9.15867 13.1694 9.1367 13.372 9.05275C13.5746 8.96881 13.7478 8.82667 13.8697 8.6443C13.9915 8.46193 14.0566 8.24752 14.0566 8.02819C14.0566 7.80886 13.9915 7.59445 13.8697 7.41208C13.7478 7.22971 13.5746 7.08757 13.372 7.00363C13.1694 6.91968 12.9464 6.89771 12.7313 6.94048C12.5162 6.98326 12.3186 7.08886 12.1634 7.24394H3.83745Z" fill="#FFB13B"/>
<path d="M5.61058 4.5299C5.61058 4.31064 5.54559 4.09631 5.42382 3.91398C5.30205 3.73165 5.12896 3.5895 4.92643 3.50551C4.72391 3.42151 4.50103 3.39943 4.28596 3.44206C4.07089 3.48469 3.87328 3.59012 3.7181 3.74501C3.56293 3.89991 3.45715 4.09733 3.41413 4.31232C3.37112 4.52731 3.39279 4.75023 3.47642 4.95291C3.56005 5.15559 3.70189 5.32893 3.884 5.45103C4.06611 5.57312 4.28032 5.6385 4.49958 5.6389L10.3886 11.5259C10.3886 11.7452 10.4536 11.9595 10.5753 12.1418C10.6971 12.3241 10.8702 12.4663 11.0727 12.5503C11.2752 12.6343 11.4981 12.6564 11.7132 12.6137C11.9283 12.5711 12.1259 12.4657 12.2811 12.3108C12.4362 12.1559 12.542 11.9585 12.585 11.7435C12.628 11.5285 12.6064 11.3056 12.5227 11.1029C12.4391 10.9002 12.2973 10.7269 12.1152 10.6048C11.933 10.4827 11.7188 10.4173 11.4996 10.4169L5.61058 4.5299Z" fill="#FFB13B"/>
<path d="M8.78388 3.86504C8.93895 3.70993 9.04455 3.51233 9.08733 3.29721C9.13011 3.08209 9.10813 2.85912 9.02419 2.65648C8.94025 2.45385 8.7981 2.28066 8.61573 2.15881C8.43336 2.03696 8.21896 1.97192 7.99963 1.97192C7.78029 1.97192 7.56589 2.03696 7.38352 2.15881C7.20115 2.28066 7.05901 2.45385 6.97506 2.65648C6.89112 2.85912 6.86915 3.08209 6.91192 3.29721C6.9547 3.51233 7.0603 3.70993 7.21538 3.86504V12.191C7.0603 12.3461 6.9547 12.5437 6.91192 12.7589C6.86915 12.974 6.89112 13.197 6.97506 13.3996C7.05901 13.6022 7.20115 13.7754 7.38352 13.8973C7.56589 14.0191 7.78029 14.0842 7.99963 14.0842C8.21896 14.0842 8.43336 14.0191 8.61573 13.8973C8.7981 13.7754 8.94025 13.6022 9.02419 13.3996C9.10813 13.197 9.13011 12.974 9.08733 12.7589C9.04455 12.5437 8.93895 12.3461 8.78388 12.191V3.86504Z" fill="#FFB13B"/>
<path d="M11.4996 5.6389C11.7189 5.6385 11.9331 5.57312 12.1152 5.45103C12.2973 5.32893 12.4391 5.15559 12.5228 4.95291C12.6064 4.75023 12.6281 4.52731 12.5851 4.31232C12.5421 4.09733 12.4363 3.89991 12.2811 3.74501C12.1259 3.59012 11.9283 3.48469 11.7132 3.44206C11.4982 3.39943 11.2753 3.42151 11.0728 3.50551C10.8702 3.5895 10.6972 3.73165 10.5754 3.91398C10.4536 4.09631 10.3886 4.31064 10.3886 4.5299L4.49963 10.4169C4.28029 10.4169 4.06587 10.4819 3.8835 10.6038C3.70112 10.7257 3.55898 10.8989 3.47504 11.1015C3.39111 11.3041 3.36914 11.5271 3.41193 11.7423C3.45473 11.9574 3.56035 12.155 3.71544 12.3101C3.87054 12.4652 4.06815 12.5708 4.28327 12.6136C4.4984 12.6564 4.72138 12.6344 4.92402 12.5505C5.12666 12.4665 5.29987 12.3244 5.42173 12.142C5.54358 11.9596 5.60863 11.7452 5.60863 11.5259L11.4996 5.6389Z" fill="#FFB13B"/>
<path d="M1.00032 8.02808H15.0003V12.9751C15.0051 13.246 14.9553 13.5151 14.8538 13.7664C14.7524 14.0176 14.6013 14.2459 14.4097 14.4375C14.2181 14.6291 13.9899 14.7801 13.7386 14.8816C13.4874 14.9831 13.2182 15.0329 12.9473 15.0281H3.05332C2.78239 15.0329 2.51327 14.9831 2.26201 14.8816C2.01076 14.7801 1.78252 14.6291 1.59091 14.4375C1.39931 14.2459 1.24826 14.0176 1.14679 13.7664C1.04532 13.5151 0.995507 13.246 1.00032 12.9751V8.02808Z" fill="black"/>
<path d="M3.10038 11.5225C2.89022 11.3113 2.73534 11.0515 2.64942 10.7662C2.56351 10.4809 2.5492 10.1788 2.60778 9.88658C2.66635 9.59441 2.796 9.32117 2.98526 9.09101C3.17452 8.86085 3.41757 8.68086 3.69292 8.56694C3.96827 8.45303 4.26744 8.4087 4.56399 8.43787C4.86054 8.46705 5.14534 8.56883 5.39321 8.73422C5.64108 8.89961 5.8444 9.12352 5.98518 9.38615C6.12596 9.64878 6.19987 9.94205 6.20038 10.24H5.13538C5.13458 10.1172 5.10361 9.99642 5.04521 9.88834C4.9868 9.78026 4.90273 9.68819 4.8004 9.62021C4.69808 9.55223 4.58062 9.51043 4.45835 9.49849C4.33608 9.48654 4.21275 9.5048 4.0992 9.55168C3.98565 9.59856 3.88535 9.67262 3.80712 9.76734C3.72889 9.86206 3.67513 9.97455 3.65055 10.0949C3.62598 10.2153 3.63135 10.3398 3.6662 10.4576C3.70104 10.5755 3.76429 10.6829 3.85038 10.7705C3.99394 10.9073 4.18317 10.9859 4.38138 10.991C4.85768 11.0144 5.31113 11.2022 5.66438 11.5225C5.87526 11.7335 6.03085 11.9932 6.11738 12.2787C6.20391 12.5642 6.21871 12.8666 6.16047 13.1591C6.10223 13.4517 5.97274 13.7253 5.78348 13.9559C5.59422 14.1864 5.35102 14.3668 5.07542 14.4809C4.79983 14.595 4.50034 14.6394 4.20349 14.6102C3.90664 14.5809 3.62158 14.4789 3.37356 14.3132C3.12554 14.1475 2.92222 13.9231 2.7816 13.6601C2.64098 13.397 2.5674 13.1033 2.56738 12.805H3.63238C3.63277 12.9281 3.66344 13.0492 3.72169 13.1576C3.77994 13.266 3.86397 13.3585 3.96638 13.4267C4.06879 13.495 4.18643 13.537 4.30892 13.5491C4.4314 13.5611 4.55497 13.5428 4.66873 13.4959C4.78248 13.4489 4.88293 13.3746 4.96119 13.2796C5.03946 13.1846 5.09315 13.0718 5.11753 12.9512C5.1419 12.8306 5.13621 12.7058 5.10096 12.5879C5.0657 12.4699 5.00197 12.3625 4.91538 12.275C4.76437 12.1499 4.57914 12.0732 4.38388 12.055C3.91034 12.0184 3.46077 11.8319 3.10038 11.5225ZM9.82588 8.42603L8.54288 14.62H7.48038L6.20038 8.42603H7.26038L8.01038 12.0535L8.76038 8.42603H9.82588ZM11.6404 10.9915H13.4544V12.8055C13.4544 13.2867 13.2632 13.7482 12.923 14.0884C12.5828 14.4286 12.1213 14.6198 11.6401 14.6198C11.159 14.6198 10.6975 14.4286 10.3573 14.0884C10.017 13.7482 9.82588 13.2867 9.82588 12.8055V10.24C9.82588 9.75886 10.017 9.2974 10.3573 8.95716C10.6975 8.61692 11.159 8.42578 11.6401 8.42578C12.1213 8.42578 12.5828 8.61692 12.923 8.95716C13.2632 9.2974 13.4544 9.75886 13.4544 10.24H12.3919C12.3919 10.0408 12.3127 9.8497 12.1718 9.70882C12.031 9.56793 11.8399 9.48878 11.6406 9.48878C11.4414 9.48878 11.2503 9.56793 11.1094 9.70882C10.9685 9.8497 10.8894 10.0408 10.8894 10.24V12.805C10.8894 13.0043 10.9685 13.1954 11.1094 13.3362C11.2503 13.4771 11.4414 13.5563 11.6406 13.5563C11.8399 13.5563 12.031 13.4771 12.1718 13.3362C12.3127 13.1954 12.3919 13.0043 12.3919 12.805V12.055H11.6419V10.9915H11.6404Z" fill="white"/>
</svg>
